<svg xmlns="http://www.w3.org/2000/svg">
  <symbol id="arrow-left" viewBox="0 0 20.969 40">
    <g>
    <path id="arrow_left" data-name="arrow left" fill="#28a9e0" fill-rule="evenodd" d="M387.709,376.993l17.964,18.074a1.119,1.119,0,0,1,.046,1.551c-0.015.016-.03,0.032-0.046,0.047a1.134,1.134,0,0,1-1.584,0l-18.771-18.873a1.173,1.173,0,0,1,0-1.6l18.771-18.842a1.12,1.12,0,0,1,.777-0.338,1.137,1.137,0,0,1,.807.338,1.119,1.119,0,0,1,.046,1.551c-0.015.016-.03,0.032-0.046,0.047Z" transform="translate(-385.031 -357)"/>
    </g>
  </symbol>
  <symbol id="arrow-right" viewBox="0 0 21.03 40">
    <g>
      <path id="arrow_right" data-name="arrow right" fill="#28a9e0" fill-rule="evenodd" d="M1532.28,376.983l-17.99,18.087a1.125,1.125,0,0,0-.05,1.553c0.02,0.016.03,0.032,0.05,0.047a1.127,1.127,0,0,0,1.58,0l18.8-18.888a1.172,1.172,0,0,0,0-1.6l-18.8-18.857a1.1,1.1,0,0,0-.78-0.338,1.141,1.141,0,0,0-.85,1.89c0.02,0.017.03,0.032,0.05,0.048Z" transform="translate(-1513.97 -357)"/>
    </g>
  </symbol>
</svg>
